<svg width="342" height="101" viewBox="0 0 342 101" fill="none" xmlns="http://www.w3.org/2000/svg">
<path d="M126.356 30.4731V60.5269C126.356 61.2465 126.952 61.8301 127.687 61.8301H129.735C130.784 61.8301 131.635 62.6627 131.635 63.6912V65.6968C131.635 66.4163 132.231 67 132.965 67H136.959C137.693 67 138.289 66.4163 138.289 65.6968V62.903C138.289 62.1835 137.693 61.5998 136.959 61.5998H133.768C132.72 61.5998 131.868 60.7672 131.868 59.7387V31.2599C131.868 30.2328 132.718 29.3988 133.768 29.3988H136.957C137.692 29.3988 138.287 28.8151 138.287 28.0956V25.3032C138.287 24.5837 137.692 24 136.957 24H132.964C132.229 24 131.633 24.5837 131.633 25.3032V27.3088C131.633 28.3359 130.784 29.1699 129.734 29.1699H127.685C126.951 29.1699 126.355 29.7535 126.355 30.4731H126.356Z" fill="currentColor"/>
<path d="M318.208 60.5245V30.4727C318.208 29.7532 317.613 29.1696 316.878 29.1696H314.829C313.781 29.1696 312.93 28.337 312.93 27.3086V25.3031C312.93 24.5836 312.334 24 311.6 24H307.606C306.872 24 306.276 24.5836 306.276 25.3031V28.0967C306.276 28.8162 306.872 29.3998 307.606 29.3998H310.797C311.845 29.3998 312.696 30.2324 312.696 31.2608V59.7392C312.696 60.7662 311.846 61.6002 310.797 61.6002H307.608C306.873 61.6002 306.277 62.1838 306.277 62.9033V65.6969C306.277 66.4164 306.873 67 307.608 67H311.601C312.336 67 312.931 66.4164 312.931 65.6969V63.6914C312.931 62.6644 313.781 61.8305 314.831 61.8305H316.88C317.614 61.8305 318.21 61.2468 318.21 60.5273L318.208 60.5245Z" fill="currentColor"/>
<path d="M43.9249 44.5265C42.4759 43.9496 40.7065 43.4685 38.6168 43.0819H38.5721C36.5415 42.7268 35.0175 42.4004 34.003 42.104C32.987 41.8091 32.1889 41.4082 31.6073 40.9042C31.0257 40.4003 30.7342 39.7045 30.7342 38.8154C30.7342 37.5125 31.2263 36.5203 32.212 35.8388C33.1977 35.1573 34.4965 34.8165 36.1086 34.8165C37.8707 34.8165 39.2951 35.2603 40.3862 36.1494C41.3646 36.9484 41.9636 37.9621 42.1844 39.1904C42.2277 39.4353 42.4369 39.6171 42.688 39.6185L47.6439 39.6558C47.9484 39.6587 48.1909 39.3995 48.1606 39.0988C47.9946 37.4552 47.4477 35.9619 46.5226 34.6161C45.4922 33.1199 44.0735 31.9574 42.2681 31.1284C40.4612 30.2994 38.409 29.8842 36.11 29.8842C33.9308 29.8842 31.9666 30.2837 30.2204 31.084C28.4741 31.8843 27.1147 32.9939 26.1448 34.4171C25.1736 35.8388 24.6887 37.4394 24.6887 39.2162C24.6887 41.172 25.1216 42.7412 25.9875 43.9266C26.8534 45.1121 27.9878 46.0083 29.392 46.6154C30.7948 47.2225 32.4819 47.7035 34.4533 48.06L34.6769 48.1044C36.7667 48.4895 38.3267 48.8303 39.3572 49.1267C40.3876 49.423 41.2001 49.8382 41.7976 50.3709C42.3951 50.9049 42.6938 51.6308 42.6938 52.5485C42.6938 53.8528 42.1569 54.8736 41.0818 55.6139C40.0066 56.3541 38.6183 56.7249 36.9168 56.7249C34.8862 56.7249 33.2439 56.2137 31.9897 55.1915C30.8482 54.2609 30.1771 53.0682 29.9751 51.6107C29.9404 51.3587 29.7297 51.1669 29.4728 51.164L24.5227 51.0896C24.2211 51.0853 23.9786 51.3373 24.0017 51.6351C24.1417 53.4276 24.7074 55.0426 25.696 56.48C26.7856 58.065 28.2865 59.3092 30.1973 60.2126C32.1081 61.116 34.3032 61.5684 36.7811 61.5684C39.0801 61.5684 41.141 61.1532 42.9622 60.3242C44.7835 59.4953 46.2094 58.347 47.2398 56.8809C48.2703 55.4148 48.7855 53.7641 48.7855 51.9271C48.7855 49.9714 48.3366 48.3951 47.4419 47.1953C46.5457 45.9955 45.3738 45.1064 43.9263 44.5294L43.9249 44.5265Z" fill="currentColor"/>
<path d="M74.8867 56.4502H74.1082C73.658 56.4502 73.3036 56.3318 73.0494 56.0923C72.7937 55.8542 72.6657 55.466 72.6657 54.9278V46.3736C72.6657 43.6564 71.7945 41.5886 70.0513 40.1716C68.3084 38.7545 66.256 38.0316 63.0402 38.0316C60.0045 38.0316 57.6326 38.6867 55.7705 39.971C54.0726 41.1412 53.0486 42.7444 52.6985 44.782C52.6447 45.098 52.8844 45.3895 53.2083 45.3895H57.7895C58.019 45.3895 58.2252 45.2394 58.2862 45.0201C58.4954 44.2654 58.9573 43.6506 59.6705 43.173C60.4969 42.6204 61.4788 42.3447 62.7715 42.3447C65.2088 42.3447 66.9431 43.8383 66.9431 46.0619V46.7575C66.9431 47.0417 66.7107 47.2711 66.426 47.2711H62.2762C58.9108 47.2711 56.3559 47.9277 54.6129 49.2409C52.8699 50.5554 51.9984 52.4212 51.9984 54.8383C51.9984 56.9292 52.7944 58.5714 54.3877 59.7647C55.5831 60.6608 57.0109 61.1774 58.4823 61.404C59.6066 61.5772 60.7598 61.6406 61.8869 61.4602C63.0664 61.2727 64.025 60.7893 64.9836 60.1009C65.845 59.4833 66.564 58.6911 67.2205 57.7243C67.5401 57.1788 68.3796 57.3967 68.3796 58.0288V58.7878C68.3796 60.1673 69.5038 61.2871 70.894 61.2871H74.8894C75.1759 61.2871 75.4067 61.0562 75.4067 60.7734V56.9653C75.4067 56.681 75.1745 56.4516 74.8894 56.4516L74.8867 56.4502ZM66.9402 51.8368C66.9402 52.9422 66.7063 53.9046 66.2415 54.7257C65.2655 56.4473 63.5196 57.3448 61.5529 57.3448C60.4098 57.3448 59.4932 57.0764 58.8033 56.5396C58.1119 56.0014 57.7663 55.2856 57.7663 54.3895C57.7663 53.3751 58.1497 52.5915 58.9151 52.0389C59.6821 51.4876 60.77 51.2106 62.1833 51.2106H66.4231C66.7092 51.2106 66.9402 51.4415 66.9402 51.7243V51.8368Z" fill="currentColor"/>
<path d="M91.4179 30.337H85.4878C82.3593 30.337 79.822 32.8612 79.822 35.9766V38.4534C79.822 38.7367 79.5907 38.9654 79.3075 38.9654H75.922C75.6374 38.9654 75.4075 39.1955 75.4075 39.4774V43.3177C75.4075 43.6011 75.6388 43.8298 75.922 43.8298H79.3075C79.5921 43.8298 79.822 44.0599 79.822 44.3418V61.0565C79.822 61.3399 80.0533 61.5685 80.3365 61.5685H84.9576C85.2422 61.5685 85.4717 61.3384 85.4717 61.0565V44.3418C85.4717 44.0585 85.703 43.8298 85.9862 43.8298H91.3701C91.6552 43.8298 91.8847 43.5996 91.8847 43.3177V39.4774C91.8847 39.1941 91.6538 38.9654 91.3701 38.9654H85.9862C85.7016 38.9654 85.4717 38.7353 85.4717 38.4534V36.2269C85.4717 35.6602 85.933 35.2013 86.5021 35.2013H91.4165C91.7011 35.2013 91.931 34.9712 91.931 34.6893V30.849C91.931 30.5656 91.6997 30.337 91.4165 30.337H91.4179Z" fill="currentColor"/>
<path d="M114.275 43.2422C113.258 41.5702 111.868 40.2853 110.107 39.3886C108.346 38.492 106.31 38.0315 104.005 38.0315C101.699 38.0315 99.7076 38.5296 97.9465 39.5013C96.1854 40.4729 94.819 41.846 93.8473 43.6233C92.8756 45.4006 92.39 47.484 92.39 49.8735C92.39 52.263 92.8922 54.2584 93.8927 56.0342C94.8952 57.8116 96.329 59.1788 98.1971 60.1346C100.064 61.0919 102.258 61.5683 104.779 61.5683C106.723 61.5683 108.462 61.2175 109.995 60.5158C111.527 59.8141 112.766 58.8511 113.707 57.6253C114.513 56.5771 115.063 55.4293 115.357 54.1818C115.433 53.8584 115.185 53.548 114.847 53.548H110.132C109.906 53.548 109.708 53.6924 109.636 53.9017C109.304 54.8676 108.717 55.63 107.876 56.1916C106.934 56.8182 105.766 57.133 104.369 57.133C103.215 57.133 102.205 56.8947 101.339 56.4168C100.474 55.9389 99.7912 55.2675 99.289 54.3998C99.0912 54.0577 98.9297 53.6967 98.8007 53.3242C98.6625 52.9243 98.5629 52.5113 98.4936 52.0941C98.4702 51.9483 98.4482 51.801 98.4307 51.6537C98.3954 51.3505 98.6405 51.0849 98.9517 51.0849H115.211C115.476 51.0849 115.701 50.8929 115.731 50.6344C115.753 50.4453 115.769 50.2518 115.776 50.054C115.791 49.6959 115.798 49.3668 115.798 49.0679C115.798 46.8574 115.289 44.9155 114.272 43.2422H114.275ZM109.39 47.1852H99.2069C98.8723 47.1852 98.6217 46.8805 98.6947 46.56C98.8576 45.8569 99.1394 45.2216 99.5401 44.6542C100.057 43.9222 100.725 43.362 101.544 42.9736C102.364 42.5852 103.259 42.3918 104.23 42.3918C105.81 42.3918 107.116 42.8104 108.147 43.6464C109.033 44.364 109.618 45.3342 109.9 46.5586C109.975 46.8805 109.724 47.1866 109.39 47.1866V47.1852Z" fill="currentColor"/>
<path d="M141.501 30.3368H147.005L151.044 49.9056C151.444 51.8109 151.754 53.6719 151.931 55.88H152.731C152.953 53.7148 153.308 51.8109 153.752 49.9056L158.056 31.8094H165.559L169.73 49.9056C170.13 51.7666 170.484 53.7148 170.707 55.88H171.551C171.728 53.6719 172.084 51.8537 172.438 49.8627L176.477 30.3368H181.892V32.155L175.677 60.2091H167.067L163.205 43.3684C162.762 41.4202 162.406 39.6449 162.185 37.3511H161.341C161.118 39.6463 160.764 41.3774 160.321 43.2827L156.326 60.2105H147.76L141.501 32.1565V30.3368Z" fill="currentColor"/>
<path d="M199.451 30.337L209.432 58.3924V60.2106H204L201.837 53.6731H188.985L186.821 60.2106H181.433V58.3924L191.414 30.337H199.451ZM190.663 48.7382H200.158L197.243 39.9925C196.58 38.0014 196.138 36.4417 195.786 34.4934H194.99C194.682 36.4417 194.24 38 193.577 39.9482L190.662 48.7368L190.663 48.7382Z" fill="currentColor"/>
<path d="M212.185 30.3368H217.762V55.1445H231.462V60.2105H212.185V30.3368Z" fill="currentColor"/>
<path d="M234.215 30.337H239.792V55.1446H253.493V60.2106H234.215V30.337Z" fill="currentColor"/>
<path d="M256.705 30.337H277.51V35.3588H262.303V42.4158H275.614V47.3948H262.303V55.1446H277.819V60.2106H256.705V30.337Z" fill="currentColor"/>
<path d="M303.867 30.337V35.4019H294.773V60.2106H289.094V35.4019H280V30.337H303.867Z" fill="currentColor"/>
<path d="M216.42 71.2H221.92C222.987 71.2 223.907 71.3933 224.68 71.78C225.453 72.1533 226.047 72.6867 226.46 73.38C226.873 74.06 227.08 74.8533 227.08 75.76C227.08 76.6667 226.873 77.4667 226.46 78.16C226.047 78.84 225.453 79.3667 224.68 79.74C223.907 80.1133 222.987 80.3 221.92 80.3H218.96V85H216.42V71.2ZM221.84 73.54H218.96V77.96H221.84C222.667 77.96 223.307 77.76 223.76 77.36C224.227 76.96 224.46 76.4267 224.46 75.76C224.46 75.08 224.227 74.54 223.76 74.14C223.307 73.74 222.667 73.54 221.84 73.54Z" fill="url(#paint0_linear_5425_96)"/>
<path d="M231.521 71.2H235.161L239.681 84.16V85H237.221L236.241 81.98H230.421L229.441 85H227.001V84.16L231.521 71.2ZM231.181 79.7H235.481L234.161 75.66C233.854 74.7267 233.634 73.88 233.501 73.12H233.141C233.021 73.8667 232.808 74.7067 232.501 75.64L231.181 79.7Z" fill="url(#paint1_linear_5425_96)"/>
<path d="M247.799 71.2C248.732 71.2 249.532 71.3667 250.199 71.7C250.879 72.0333 251.392 72.4933 251.739 73.08C252.099 73.6667 252.279 74.3267 252.279 75.06C252.279 75.8467 252.079 76.5267 251.679 77.1C251.279 77.6733 250.706 78.0867 249.959 78.34V78.7C250.679 78.8733 251.186 79.2067 251.479 79.7C251.786 80.18 251.939 80.8267 251.939 81.64V85H249.379V81.58C249.379 80.9133 249.226 80.4267 248.919 80.12C248.626 79.8133 248.166 79.66 247.539 79.66H243.999V85H241.459V71.2H247.799ZM243.999 73.54V77.4H247.379C248.112 77.4 248.672 77.2267 249.059 76.88C249.446 76.52 249.639 76.0533 249.639 75.48C249.639 74.8933 249.446 74.4267 249.059 74.08C248.672 73.72 248.112 73.54 247.379 73.54H243.999Z" fill="url(#paint2_linear_5425_96)"/>
<path d="M253.209 71.2H263.969V73.54H259.869V85H257.309V73.54H253.209V71.2Z" fill="url(#paint3_linear_5425_96)"/>
<path d="M265.619 85V71.2H269.879L274.459 82.28H274.799V71.2H277.279V85H273.079L268.439 73.88H268.099V85H265.619Z" fill="url(#paint4_linear_5425_96)"/>
<path d="M280.111 85V71.2H289.551V73.52H282.651V76.78H288.691V79.08H282.651V82.66H289.691V85H280.111Z" fill="url(#paint5_linear_5425_96)"/>
<path d="M298.444 71.2C299.377 71.2 300.177 71.3667 300.844 71.7C301.524 72.0333 302.037 72.4933 302.384 73.08C302.744 73.6667 302.924 74.3267 302.924 75.06C302.924 75.8467 302.724 76.5267 302.324 77.1C301.924 77.6733 301.35 78.0867 300.604 78.34V78.7C301.324 78.8733 301.83 79.2067 302.124 79.7C302.43 80.18 302.584 80.8267 302.584 81.64V85H300.024V81.58C300.024 80.9133 299.87 80.4267 299.564 80.12C299.27 79.8133 298.81 79.66 298.184 79.66H294.644V85H292.104V71.2H298.444ZM294.644 73.54V77.4H298.024C298.757 77.4 299.317 77.2267 299.704 76.88C300.09 76.52 300.284 76.0533 300.284 75.48C300.284 74.8933 300.09 74.4267 299.704 74.08C299.317 73.72 298.757 73.54 298.024 73.54H294.644Z" fill="url(#paint6_linear_5425_96)"/>
<defs>
<linearGradient id="paint0_linear_5425_96" x1="306.277" y1="70.9898" x2="257.251" y2="125.218" gradientUnits="userSpaceOnUse">
<stop offset="0.0328893" stop-color="#0FDA6D"/>
<stop offset="1" stop-color="#52BFDC"/>
</linearGradient>
<linearGradient id="paint1_linear_5425_96" x1="306.277" y1="70.9898" x2="257.251" y2="125.218" gradientUnits="userSpaceOnUse">
<stop offset="0.0328893" stop-color="#0FDA6D"/>
<stop offset="1" stop-color="#52BFDC"/>
</linearGradient>
<linearGradient id="paint2_linear_5425_96" x1="306.277" y1="70.9898" x2="257.251" y2="125.218" gradientUnits="userSpaceOnUse">
<stop offset="0.0328893" stop-color="#0FDA6D"/>
<stop offset="1" stop-color="#52BFDC"/>
</linearGradient>
<linearGradient id="paint3_linear_5425_96" x1="306.277" y1="70.9898" x2="257.251" y2="125.218" gradientUnits="userSpaceOnUse">
<stop offset="0.0328893" stop-color="#0FDA6D"/>
<stop offset="1" stop-color="#52BFDC"/>
</linearGradient>
<linearGradient id="paint4_linear_5425_96" x1="306.277" y1="70.9898" x2="257.251" y2="125.218" gradientUnits="userSpaceOnUse">
<stop offset="0.0328893" stop-color="#0FDA6D"/>
<stop offset="1" stop-color="#52BFDC"/>
</linearGradient>
<linearGradient id="paint5_linear_5425_96" x1="306.277" y1="70.9898" x2="257.251" y2="125.218" gradientUnits="userSpaceOnUse">
<stop offset="0.0328893" stop-color="#0FDA6D"/>
<stop offset="1" stop-color="#52BFDC"/>
</linearGradient>
<linearGradient id="paint6_linear_5425_96" x1="306.277" y1="70.9898" x2="257.251" y2="125.218" gradientUnits="userSpaceOnUse">
<stop offset="0.0328893" stop-color="#0FDA6D"/>
<stop offset="1" stop-color="#52BFDC"/>
</linearGradient>
</defs>
</svg>
